<?xml version="1.0" encoding="UTF-8"?><svg id="Layer_1" xmlns="http://www.w3.org/2000/svg" viewBox="0 0 719 64"><defs><style>.cls-1{fill:#fff;}</style></defs><path class="cls-1" d="M191.19,48.87h7.25v9.68h-36.22v-9.66h7.24c2.66,0,4.83-2.15,4.83-4.83v-24.14c0-2.67-2.16-4.82-4.82-4.82h-7.25V5.45h26.56l35.41,31.38v-16.9c0-2.67-2.16-4.82-4.83-4.82h-6.43V5.45h33.78v9.66h-6.43c-2.66,0-4.82,2.15-4.82,4.82v38.63h-10.47l-38.63-33.79v19.29c0,2.66,2.17,4.82,4.83,4.82h0Z"/><path class="cls-1" d="M372.33,46.98c0,1.06-.87,1.92-1.93,1.92h-5.55v9.66h39.42v-9.66h-3.96c-3.14,0-5.93-1.48-7.68-3.82l-14.9-19.53,16.18-9.25c1.38-.76,2.98-1.2,4.69-1.2h3.25V5.45h-37v9.66h3.75c1.07,0,1.92.86,1.92,1.92,0,.6-.26,1.14-.68,1.48l-19.48,11.08v-9.66c0-2.67,2.17-4.82,4.83-4.82h4.19V5.45h-37.19v9.66h5.63c2.68,0,4.82,2.15,4.82,4.82v24.14c0,2.68-2.14,4.83-4.82,4.83h-5.63v9.66h37.19v-9.66h-4.19c-2.66,0-4.83-2.15-4.83-4.83v-2.41l12.88-7.24,8.69,11.38c.25.32.39.73.39,1.18h0Z"/><path class="cls-1" d="M504.49,48.9h-6.46v9.66h40.23v-9.66h-6.42c-2.66,0-4.83-2.15-4.83-4.83v-4.83l21.36-21.32c1.73-1.75,4.13-2.81,6.81-2.81h3.37V5.45h-29.95v9.66h3.41c1.07,0,1.93.86,1.93,1.92,0,.51-.19.96-.5,1.3l-11.25,11.26-11.21-11.2c-.35-.35-.56-.83-.56-1.36,0-1.06.87-1.92,1.94-1.92h6.61V5.45h-40.29v9.66h2.48c2.68,0,5.09,1.08,6.84,2.84l21.32,21.3v4.83c0,2.68-2.15,4.83-4.81,4.83h0Z"/><path class="cls-1" d="M44.23,60.96c-6.51,0-12.83-.65-18.93-1.94-12.37-2.79-21.59-13.81-21.59-27.01S12.94,7.76,25.3,4.98c6.12-1.29,12.43-1.95,18.93-1.95s12.8.66,18.93,1.95c12.35,2.78,21.59,13.81,21.59,27.01s-9.24,24.23-21.61,27.02c-6.1,1.28-12.43,1.95-18.91,1.95h0ZM44.24,51.31c10.65,0,19.31-8.63,19.31-19.3s-8.66-19.31-19.31-19.31-19.32,8.64-19.32,19.31,8.65,19.3,19.32,19.3h0Z"/><path class="cls-1" d="M716.94,32c0,13.2-9.23,24.23-21.6,27.02-6.12,1.28-12.45,1.95-18.93,1.95s-12.81-.65-18.93-1.94c-12.35-2.79-21.59-13.81-21.59-27.01s9.24-24.25,21.6-27.03c6.12-1.29,12.44-1.95,18.93-1.95s12.81.66,18.93,1.95c12.37,2.78,21.6,13.81,21.6,27.01h0ZM695.74,32.01c0-10.67-8.65-19.31-19.32-19.31s-19.32,8.64-19.32,19.31,8.66,19.3,19.32,19.3,19.32-8.63,19.32-19.3h0Z"/></svg>